999
dxfrw 0.6.3
  0
SECTION
  2
HEADER
  9
$ACADVER
  1
AC1021
  9
$DWGCODEPAGE
  3
ANSI_1252
  9
$INSBASE
 10
0
 20
0
 30
0
  9
$EXTMIN
 10
0
 20
0
 30
0
  9
$EXTMAX
 10
193.125
 20
282
 30
0
  9
$LIMMIN
 10
0
 20
0
  9
$LIMMAX
 10
420
 20
297
  9
$ORTHOMODE
 70
    0
  9
$REGENMODE
 70
    1
  9
$FILLMODE
 70
    1
  9
$QTEXTMODE
 70
    0
  9
$MIRRTEXT
 70
    0
  9
$LTSCALE
 40
1
  9
$ATTMODE
 70
    0
  9
$TEXTSIZE
 40
2.5
  9
$TRACEWID
 40
15.68
  9
$TEXTSTYLE
  7
STANDARD
  9
$CLAYER
  8
final centre
  9
$CELTYPE
  6
BYLAYER
  9
$CECOLOR
 62
  256
  9
$CELTSCALE
 40
1
  9
$DISPSILH
 70
    0
  9
$DIMSCALE
 40
2.5
  9
$DIMASZ
 40
2.5
  9
$DIMEXO
 40
0.625
  9
$DIMDLI
 40
3.75
  9
$DIMRND
 40
0
  9
$DIMDLE
 40
0
  9
$DIMEXE
 40
1.25
  9
$DIMTP
 40
0
  9
$DIMTM
 40
0
  9
$DIMTXT
 40
2.5
  9
$DIMCEN
 40
2.5
  9
$DIMTSZ
 40
0
  9
$DIMTOL
 70
    0
  9
$DIMLIM
 70
    0
  9
$DIMTIH
 70
    0
  9
$DIMTOH
 70
    0
  9
$DIMSE1
 70
    0
  9
$DIMSE2
 70
    0
  9
$DIMTAD
 70
    1
  9
$DIMZIN
 70
    8
  9
$DIMBLK
  1

  9
$DIMASO
 70
    1
  9
$DIMSHO
 70
    1
  9
$DIMPOST
  1

  9
$DIMAPOST
  1

  9
$DIMALT
 70
    0
  9
$DIMALTD
 70
    3
  9
$DIMALTF
 40
0.03937
  9
$DIMLFAC
 40
1
  9
$DIMTOFL
 70
    1
  9
$DIMTVP
 40
0
  9
$DIMTIX
 70
    0
  9
$DIMSOXD
 70
    0
  9
$DIMSAH
 70
    0
  9
$DIMBLK1
  1

  9
$DIMBLK2
  1

  9
$DIMSTYLE
  2
STANDARD
  9
$DIMCLRD
 70
    0
  9
$DIMCLRE
 70
    0
  9
$DIMCLRT
 70
    0
  9
$DIMTFAC
 40
1
  9
$DIMGAP
 40
0.625
  9
$DIMJUST
 70
    0
  9
$DIMSD1
 70
    0
  9
$DIMSD2
 70
    0
  9
$DIMTOLJ
 70
    0
  9
$DIMTZIN
 70
    8
  9
$DIMALTZ
 70
    0
  9
$DIMALTTZ
 70
    0
  9
$DIMUPT
 70
    0
  9
$DIMDEC
 70
    2
  9
$DIMTDEC
 70
    2
  9
$DIMALTU
 70
    2
  9
$DIMALTTD
 70
    3
  9
$DIMTXSTY
  7
STANDARD
  9
$DIMAUNIT
 70
    0
  9
$DIMADEC
 70
    0
  9
$DIMALTRND
 40
0
  9
$DIMAZIN
 70
    0
  9
$DIMDSEP
 70
   44
  9
$DIMATFIT
 70
    3
  9
$DIMFRAC
 70
    0
  9
$DIMLDRBLK
  1
STANDARD
  9
$DIMLUNIT
 70
    2
  9
$DIMLWD
 70
   -2
  9
$DIMLWE
 70
   -2
  9
$DIMTMOVE
 70
    0
  9
$DIMFXL
 40
1
  9
$DIMFXLON
 70
    0
  9
$DIMJOGANG
 40
0.7854
  9
$DIMTFILL
 70
    0
  9
$DIMTFILLCLR
 70
    0
  9
$DIMARCSYM
 70
    0
  9
$DIMLTYPE
  6

  9
$DIMLTEX1
  6

  9
$DIMLTEX2
  6

  9
$LUNITS
 70
    2
  9
$LUPREC
 70
    4
  9
$SKETCHINC
 40
1
  9
$FILLETRAD
 40
0
  9
$AUNITS
 70
    0
  9
$AUPREC
 70
    2
  9
$MENU
  1
.
  9
$ELEVATION
 40
0
  9
$PELEVATION
 40
0
  9
$THICKNESS
 40
0
  9
$LIMCHECK
 70
    0
  9
$CHAMFERA
 40
0
  9
$CHAMFERB
 40
0
  9
$CHAMFERC
 40
0
  9
$CHAMFERD
 40
0
  9
$SKPOLY
 70
    0
  9
$USRTIMER
 70
    1
  9
$ANGBASE
 50
0
  9
$ANGDIR
 70
    0
  9
$PDMODE
 70
   34
  9
$PDSIZE
 40
0
  9
$PLINEWID
 40
0
  9
$SPLFRAME
 70
    0
  9
$SPLINETYPE
 70
    2
  9
$SPLINESEGS
 70
    8
  9
$HANDSEED
  5
20000
  9
$SURFTAB1
 70
    6
  9
$SURFTAB2
 70
    6
  9
$SURFTYPE
 70
    6
  9
$SURFU
 70
    6
  9
$SURFV
 70
    6
  9
$UCSBASE
  2

  9
$UCSNAME
  2

  9
$UCSORG
 10
0
 20
0
 30
0
  9
$UCSXDIR
 10
1
 20
0
 30
0
  9
$UCSYDIR
 10
0
 20
1
 30
0
  9
$UCSORTHOREF
  2

  9
$UCSORTHOVIEW
 70
    0
  9
$UCSORGTOP
 10
0
 20
0
 30
0
  9
$UCSORGBOTTOM
 10
0
 20
0
 30
0
  9
$UCSORGLEFT
 10
0
 20
0
 30
0
  9
$UCSORGRIGHT
 10
0
 20
0
 30
0
  9
$UCSORGFRONT
 10
0
 20
0
 30
0
  9
$UCSORGBACK
 10
0
 20
0
 30
0
  9
$PUCSBASE
  2

  9
$PUCSNAME
  2

  9
$PUCSORG
 10
0
 20
0
 30
0
  9
$PUCSXDIR
 10
1
 20
0
 30
0
  9
$PUCSYDIR
 10
0
 20
1
 30
0
  9
$PUCSORTHOREF
  2

  9
$PUCSORTHOVIEW
 70
    0
  9
$PUCSORGTOP
 10
0
 20
0
 30
0
  9
$PUCSORGBOTTOM
 10
0
 20
0
 30
0
  9
$PUCSORGLEFT
 10
0
 20
0
 30
0
  9
$PUCSORGRIGHT
 10
0
 20
0
 30
0
  9
$PUCSORGFRONT
 10
0
 20
0
 30
0
  9
$PUCSORGBACK
 10
0
 20
0
 30
0
  9
$USERI1
 70
    0
  9
$USERI2
 70
    0
  9
$USERI3
 70
    0
  9
$USERI4
 70
    0
  9
$USERI5
 70
    0
  9
$USERR1
 40
0
  9
$USERR2
 40
0
  9
$USERR3
 40
0
  9
$USERR4
 40
0
  9
$USERR5
 40
0
  9
$WORLDVIEW
 70
    1
  9
$SHADEDGE
 70
    3
  9
$SHADEDIF
 70
   70
  9
$TILEMODE
 70
    1
  9
$MAXACTVP
 70
   64
  9
$PINSBASE
 10
8.4375
 20
39.59375
 30
0
  9
$PLIMCHECK
 70
    0
  9
$PEXTMIN
 10
0
 20
0
 30
0
  9
$PEXTMAX
 10
0
 20
0
 30
0
  9
$GRIDMODE
 70
    1
  9
$SNAPSTYLE
 70
    0
  9
$PLIMMIN
 10
0
 20
0
  9
$PLIMMAX
 10
210
 20
297
  9
$UNITMODE
 70
    0
  9
$VISRETAIN
 70
    1
  9
$PLINEGEN
 70
    0
  9
$PSLTSCALE
 70
    1
  9
$TREEDEPTH
 70
 3020
  9
$CMLSTYLE
  2
Standard
  9
$CMLJUST
 70
    0
  9
$CMLSCALE
 40
20
  9
$PROXYGRAPHICS
 70
    1
  9
$MEASUREMENT
 70
    1
  9
$CELWEIGHT
370
   -1
  9
$ENDCAPS
280
    0
  9
$JOINSTYLE
280
    0
  9
$LWDISPLAY
290
    0
  9
$INSUNITS
 70
    4
  9
$HYPERLINKBASE
  1

  9
$STYLESHEET
  1

  9
$XEDIT
290
    1
  9
$CEPSNTYPE
380
    0
  9
$PSTYLEMODE
290
    1
  9
$EXTNAMES
290
    1
  9
$PSVPSCALE
 40
1
  9
$OLESTARTUP
290
    0
  9
$SORTENTS
280
  127
  9
$INDEXCTL
280
    0
  9
$HIDETEXT
280
    1
  9
$XCLIPFRAME
290
    0
  9
$HALOGAP
280
    0
  9
$OBSCOLOR
 70
  257
  9
$OBSLTYPE
280
    0
  9
$INTERSECTIONDISPLAY
280
    0
  9
$INTERSECTIONCOLOR
 70
  257
  9
$DIMASSOC
280
    1
  9
$PROJECTNAME
  1

  9
$CAMERADISPLAY
290
    0
  9
$LENSLENGTH
 40
50
  9
$CAMERAHEIGHT
 40
0
  9
$STEPSPERSEC
 40
2
  9
$STEPSIZE
 40
50
  9
$3DDWFPREC
 40
2
  9
$PSOLWIDTH
 40
5
  9
$PSOLHEIGHT
 40
80
  9
$LOFTANG1
 40
1.570796326794897
  9
$LOFTANG2
 40
1.570796326794897
  9
$LOFTMAG1
 40
0
  9
$LOFTMAG2
 40
0
  9
$LOFTPARAM
 70
    7
  9
$LOFTNORMALS
280
    1
  9
$LATITUDE
 40
1
  9
$LONGITUDE
 40
1
  9
$NORTHDIRECTION
 40
0
  9
$TIMEZONE
 70
-8000
  9
$LIGHTGLYPHDISPLAY
280
    1
  9
$TILEMODELIGHTSYNCH
280
    1
  9
$SOLIDHIST
280
    1
  9
$SHOWHIST
280
    1
  9
$DWFFRAME
280
    2
  9
$DGNFRAME
280
    0
  9
$REALWORLDSCALE
290
    1
  9
$INTERFERECOLOR
 62
    1
  9
$CSHADOW
280
    0
  9
$SHADOWPLANELOCATION
 40
0
  0
ENDSEC
  0
SECTION
  2
CLASSES
  0
ENDSEC
  0
SECTION
  2
TABLES
  0
TABLE
  2
VPORT
  5
8
330
0
100
AcDbSymbolTable
 70
    1
  0
VPORT
  5
31
330
2
100
AcDbSymbolTableRecord
100
AcDbViewportTableRecord
  2
*ACTIVE
 70
    0
 10
0
 20
0
 11
1
 21
1
 12
286.1190953746898
 22
154.2723230466233
 13
0
 23
0
 14
10
 24
10
 15
10
 25
10
 16
0
 26
0
 36
1
 17
0
 27
0
 37
0
 40
426.8587585049427
 41
2.014492753623188
 42
50
 43
0
 44
0
 50
0
 51
0
 71
    0
 72
  100
 73
    1
 74
    3
 75
    0
 76
    1
 77
    0
 78
    0
281
    0
 65
    1
110
0
120
0
130
0
111
1
121
0
131
0
112
0
122
1
132
0
 79
    0
146
0
348
10020
 60
    7
 61
    5
292
1
282
    1
141
0
142
0
 63
  250
421
3358443
  0
ENDTAB
  0
TABLE
  2
LTYPE
  5
5
330
0
100
AcDbSymbolTable
 70
    4
  0
LTYPE
  5
14
330
5
100
AcDbSymbolTableRecord
100
AcDbLinetypeTableRecord
  2
ByBlock
 70
    0
  3

 72
   65
 73
    0
 40
0
  0
LTYPE
  5
15
330
5
100
AcDbSymbolTableRecord
100
AcDbLinetypeTableRecord
  2
ByLayer
 70
    0
  3

 72
   65
 73
    0
 40
0
  0
LTYPE
  5
16
330
5
100
AcDbSymbolTableRecord
100
AcDbLinetypeTableRecord
  2
Continuous
 70
    0
  3
Solid line
 72
   65
 73
    0
 40
0
  0
LTYPE
  5
32
330
5
100
AcDbSymbolTableRecord
100
AcDbLinetypeTableRecord
  2
DOT
 70
    0
  3
Dot . . . . . . . . . . . . . . . . . . . . . .
 72
   65
 73
    2
 40
6.35
 49
0
 74
    0
 49
-6.35
 74
    0
  0
LTYPE
  5
33
330
5
100
AcDbSymbolTableRecord
100
AcDbLinetypeTableRecord
  2
DOTTINY
 70
    0
  3
Dot (.15x) .....................................
 72
   65
 73
    2
 40
0.9525
 49
0
 74
    0
 49
-0.9525
 74
    0
  0
LTYPE
  5
34
330
5
100
AcDbSymbolTableRecord
100
AcDbLinetypeTableRecord
  2
DOT2
 70
    0
  3
Dot (.5x) .....................................
 72
   65
 73
    2
 40
3.175
 49
0
 74
    0
 49
-3.175
 74
    0
  0
LTYPE
  5
35
330
5
100
AcDbSymbolTableRecord
100
AcDbLinetypeTableRecord
  2
DOTX2
 70
    0
  3
Dot (2x) .  .  .  .  .  .  .  .  .  .  .  .  .
 72
   65
 73
    2
 40
12.7
 49
0
 74
    0
 49
-12.7
 74
    0
  0
LTYPE
  5
36
330
5
100
AcDbSymbolTableRecord
100
AcDbLinetypeTableRecord
  2
DASHED
 70
    0
  3
Dashed _ _ _ _ _ _ _ _ _ _ _ _ _ _ _ _ _
 72
   65
 73
    2
 40
19.05
 49
12.7
 74
    0
 49
-6.35
 74
    0
  0
LTYPE
  5
37
330
5
100
AcDbSymbolTableRecord
100
AcDbLinetypeTableRecord
  2
DASHEDTINY
 70
    0
  3
Dashed (.15x) _ _ _ _ _ _ _ _ _ _ _ _ _ _ _ _ _
 72
   65
 73
    2
 40
2.8575
 49
1.905
 74
    0
 49
-0.9525
 74
    0
  0
LTYPE
  5
38
330
5
100
AcDbSymbolTableRecord
100
AcDbLinetypeTableRecord
  2
DASHED2
 70
    0
  3
Dashed (.5x) _ _ _ _ _ _ _ _ _ _ _ _ _ _ _ _ _
 72
   65
 73
    2
 40
9.524999999999999
 49
6.35
 74
    0
 49
-3.175
 74
    0
  0
LTYPE
  5
39
330
5
100
AcDbSymbolTableRecord
100
AcDbLinetypeTableRecord
  2
DASHEDX2
 70
    0
  3
Dashed (2x) ____  ____  ____  ____  ____  ___
 72
   65
 73
    2
 40
38.09999999999999
 49
25.4
 74
    0
 49
-12.7
 74
    0
  0
LTYPE
  5
3A
330
5
100
AcDbSymbolTableRecord
100
AcDbLinetypeTableRecord
  2
DASHDOT
 70
    0
  3
Dash dot __ . __ . __ . __ . __ . __ . __ . __
 72
   65
 73
    4
 40
25.4
 49
12.7
 74
    0
 49
-6.35
 74
    0
 49
0
 74
    0
 49
-6.35
 74
    0
  0
LTYPE
  5
3B
330
5
100
AcDbSymbolTableRecord
100
AcDbLinetypeTableRecord
  2
DASHDOTTINY
 70
    0
  3
Dash dot (.15x) _._._._._._._._._._._._._._._.
 72
   65
 73
    4
 40
3.81
 49
1.905
 74
    0
 49
-0.9525
 74
    0
 49
0
 74
    0
 49
-0.9525
 74
    0
  0
LTYPE
  5
3C
330
5
100
AcDbSymbolTableRecord
100
AcDbLinetypeTableRecord
  2
DASHDOT2
 70
    0
  3
Dash dot (.5x) _._._._._._._._._._._._._._._.
 72
   65
 73
    4
 40
12.7
 49
6.35
 74
    0
 49
-3.175
 74
    0
 49
0
 74
    0
 49
-3.175
 74
    0
  0
LTYPE
  5
3D
330
5
100
AcDbSymbolTableRecord
100
AcDbLinetypeTableRecord
  2
DASHDOTX2
 70
    0
  3
Dash dot (2x) ____  .  ____  .  ____  .  ___
 72
   65
 73
    4
 40
50.8
 49
25.4
 74
    0
 49
-12.7
 74
    0
 49
0
 74
    0
 49
-12.7
 74
    0
  0
LTYPE
  5
3E
330
5
100
AcDbSymbolTableRecord
100
AcDbLinetypeTableRecord
  2
DIVIDE
 70
    0
  3
Divide ____ . . ____ . . ____ . . ____ . . ____
 72
   65
 73
    6
 40
31.75
 49
12.7
 74
    0
 49
-6.35
 74
    0
 49
0
 74
    0
 49
-6.35
 74
    0
 49
0
 74
    0
 49
-6.35
 74
    0
  0
LTYPE
  5
3F
330
5
100
AcDbSymbolTableRecord
100
AcDbLinetypeTableRecord
  2
DIVIDETINY
 70
    0
  3
Divide (.15x) __..__..__..__..__..__..__..__.._
 72
   65
 73
    6
 40
4.7625
 49
1.905
 74
    0
 49
-0.9525
 74
    0
 49
0
 74
    0
 49
-0.9525
 74
    0
 49
0
 74
    0
 49
-0.9525
 74
    0
  0
LTYPE
  5
40
330
5
100
AcDbSymbolTableRecord
100
AcDbLinetypeTableRecord
  2
DIVIDE2
 70
    0
  3
Divide (.5x) __..__..__..__..__..__..__..__.._
 72
   65
 73
    6
 40
15.875
 49
6.35
 74
    0
 49
-3.175
 74
    0
 49
0
 74
    0
 49
-3.175
 74
    0
 49
0
 74
    0
 49
-3.175
 74
    0
  0
LTYPE
  5
41
330
5
100
AcDbSymbolTableRecord
100
AcDbLinetypeTableRecord
  2
DIVIDEX2
 70
    0
  3
Divide (2x) ________  .  .  ________  .  .  _
 72
   65
 73
    6
 40
63.5
 49
25.4
 74
    0
 49
-12.7
 74
    0
 49
0
 74
    0
 49
-12.7
 74
    0
 49
0
 74
    0
 49
-12.7
 74
    0
  0
LTYPE
  5
42
330
5
100
AcDbSymbolTableRecord
100
AcDbLinetypeTableRecord
  2
BORDER
 70
    0
  3
Border __ __ . __ __ . __ __ . __ __ . __ __ .
 72
   65
 73
    6
 40
44.45
 49
12.7
 74
    0
 49
-6.35
 74
    0
 49
12.7
 74
    0
 49
-6.35
 74
    0
 49
0
 74
    0
 49
-6.35
 74
    0
  0
LTYPE
  5
43
330
5
100
AcDbSymbolTableRecord
100
AcDbLinetypeTableRecord
  2
BORDERTINY
 70
    0
  3
Border (.15x) __.__.__.__.__.__.__.__.__.__.__.
 72
   65
 73
    6
 40
6.6675
 49
1.905
 74
    0
 49
-0.9525
 74
    0
 49
1.905
 74
    0
 49
-0.9525
 74
    0
 49
0
 74
    0
 49
-0.9525
 74
    0
  0
LTYPE
  5
44
330
5
100
AcDbSymbolTableRecord
100
AcDbLinetypeTableRecord
  2
BORDER2
 70
    0
  3
Border (.5x) __.__.__.__.__.__.__.__.__.__.__.
 72
   65
 73
    6
 40
22.225
 49
6.35
 74
    0
 49
-3.175
 74
    0
 49
6.35
 74
    0
 49
-3.175
 74
    0
 49
0
 74
    0
 49
-3.175
 74
    0
  0
LTYPE
  5
45
330
5
100
AcDbSymbolTableRecord
100
AcDbLinetypeTableRecord
  2
BORDERX2
 70
    0
  3
Border (2x) ____  ____  .  ____  ____  .  ___
 72
   65
 73
    6
 40
88.89999999999999
 49
25.4
 74
    0
 49
-12.7
 74
    0
 49
25.4
 74
    0
 49
-12.7
 74
    0
 49
0
 74
    0
 49
-12.7
 74
    0
  0
LTYPE
  5
46
330
5
100
AcDbSymbolTableRecord
100
AcDbLinetypeTableRecord
  2
CENTER
 70
    0
  3
Center ____ _ ____ _ ____ _ ____ _ ____ _ ____
 72
   65
 73
    4
 40
50.8
 49
31.75
 74
    0
 49
-6.35
 74
    0
 49
6.35
 74
    0
 49
-6.35
 74
    0
  0
LTYPE
  5
47
330
5
100
AcDbSymbolTableRecord
100
AcDbLinetypeTableRecord
  2
CENTERTINY
 70
    0
  3
Center (.15x) ___ _ ___ _ ___ _ ___ _ ___ _ ___
 72
   65
 73
    4
 40
7.619999999999999
 49
4.7625
 74
    0
 49
-0.9525
 74
    0
 49
0.9525
 74
    0
 49
-0.9525
 74
    0
  0
LTYPE
  5
48
330
5
100
AcDbSymbolTableRecord
100
AcDbLinetypeTableRecord
  2
CENTER2
 70
    0
  3
Center (.5x) ___ _ ___ _ ___ _ ___ _ ___ _ ___
 72
   65
 73
    4
 40
28.575
 49
19.05
 74
    0
 49
-3.175
 74
    0
 49
3.175
 74
    0
 49
-3.175
 74
    0
  0
LTYPE
  5
49
330
5
100
AcDbSymbolTableRecord
100
AcDbLinetypeTableRecord
  2
CENTERX2
 70
    0
  3
Center (2x) ________  __  ________  __  _____
 72
   65
 73
    4
 40
101.6
 49
63.5
 74
    0
 49
-12.7
 74
    0
 49
12.7
 74
    0
 49
-12.7
 74
    0
  0
ENDTAB
  0
TABLE
  2
LAYER
  5
2
330
0
100
AcDbSymbolTable
 70
    1
  0
LAYER
  5
10
330
2
100
AcDbSymbolTableRecord
100
AcDbLayerTableRecord
  2
0
 70
    0
 62
    7
  6
CONTINUOUS
370
   13
390
F
  0
LAYER
  5
4A
330
2
100
AcDbSymbolTableRecord
100
AcDbLayerTableRecord
  2
construct
 70
    0
 62
    4
  6
CONTINUOUS
370
    0
390
F
1001
LibreCad
1070
    1
  0
LAYER
  5
4B
330
2
100
AcDbSymbolTableRecord
100
AcDbLayerTableRecord
  2
contsruct2
 70
    1
 62
    4
  6
CONTINUOUS
370
    0
390
F
1001
LibreCad
1070
    1
  0
LAYER
  5
4C
330
2
100
AcDbSymbolTableRecord
100
AcDbLayerTableRecord
  2
final centre
 70
    0
 62
    7
  6
CONTINUOUS
370
   13
390
F
  0
LAYER
  5
4D
330
2
100
AcDbSymbolTableRecord
100
AcDbLayerTableRecord
  2
finaldotted
 70
    0
 62
    7
  6
DASHDOTTINY
370
   13
390
F
  0
ENDTAB
  0
TABLE
  2
STYLE
  5
3
330
0
100
AcDbSymbolTable
 70
    3
  0
STYLE
  5
4E
330
2
100
AcDbSymbolTableRecord
100
AcDbTextStyleTableRecord
  2
standard
 70
    0
 40
0
 41
1
 50
0
 71
    0
 42
1
  3
standard
  4

  0
ENDTAB
  0
TABLE
  2
VIEW
  5
6
330
0
100
AcDbSymbolTable
 70
    0
  0
ENDTAB
  0
TABLE
  2
UCS
  5
7
330
0
100
AcDbSymbolTable
 70
    0
  0
ENDTAB
  0
TABLE
  2
APPID
  5
9
330
0
100
AcDbSymbolTable
 70
    1
  0
APPID
  5
12
330
9
100
AcDbSymbolTableRecord
100
AcDbRegAppTableRecord
  2
ACAD
 70
    0
  0
APPID
  5
4F
330
9
100
AcDbSymbolTableRecord
100
AcDbRegAppTableRecord
  2
LibreCad
 70
    0
  0
ENDTAB
  0
TABLE
  2
DIMSTYLE
  5
A
330
0
100
AcDbSymbolTable
 70
    1
100
AcDbDimStyleTable
 71
    1
  0
DIMSTYLE
105
50
330
A
100
AcDbSymbolTableRecord
100
AcDbDimStyleTableRecord
  2
Standard
 70
    0
 40
2.5
 41
2.5
 42
0.625
 43
0.38
 44
1.25
 45
0
 46
0
 47
0
 48
0
 49
1
140
2.5
141
0.09
142
0
143
25.4
144
1
145
0
146
1
147
0.625
148
0
 71
    0
 72
    0
 73
    0
 74
    1
 75
    0
 76
    0
 77
    0
 78
    8
 79
    0
170
    0
171
    2
172
    0
173
    0
174
    0
175
    0
176
    0
177
    0
178
    0
179
    0
271
    2
272
    4
273
    2
274
    2
275
    0
276
    0
277
    2
278
   44
279
    0
280
    0
281
    0
282
    0
283
    1
284
    0
285
    0
286
    0
288
    0
289
    3
340
STANDARD
341

371
   -2
372
   -2
  0
ENDTAB
  0
TABLE
  2
BLOCK_RECORD
  5
1
330
0
100
AcDbSymbolTable
 70
    2
  0
BLOCK_RECORD
  5
1F
330
1
100
AcDbSymbolTableRecord
100
AcDbBlockTableRecord
  2
*Model_Space
 70
    0
280
    1
281
    0
  0
BLOCK_RECORD
  5
1E
330
1
100
AcDbSymbolTableRecord
100
AcDbBlockTableRecord
  2
*Paper_Space
 70
    0
280
    1
281
    0
  0
BLOCK_RECORD
  5
51
330
1
100
AcDbSymbolTableRecord
100
AcDbBlockTableRecord
  2
*D5
 70
    0
280
    1
281
    0
  0
BLOCK_RECORD
  5
54
330
1
100
AcDbSymbolTableRecord
100
AcDbBlockTableRecord
  2
*D9
 70
    0
280
    1
281
    0
  0
BLOCK_RECORD
  5
57
330
1
100
AcDbSymbolTableRecord
100
AcDbBlockTableRecord
  2
*D2
 70
    0
280
    1
281
    0
  0
BLOCK_RECORD
  5
5A
330
1
100
AcDbSymbolTableRecord
100
AcDbBlockTableRecord
  2
*D3
 70
    0
280
    1
281
    0
  0
BLOCK_RECORD
  5
5D
330
1
100
AcDbSymbolTableRecord
100
AcDbBlockTableRecord
  2
*D6
 70
    0
280
    1
281
    0
  0
BLOCK_RECORD
  5
60
330
1
100
AcDbSymbolTableRecord
100
AcDbBlockTableRecord
  2
*D1
 70
    0
280
    1
281
    0
  0
BLOCK_RECORD
  5
63
330
1
100
AcDbSymbolTableRecord
100
AcDbBlockTableRecord
  2
*D8
 70
    0
280
    1
281
    0
  0
BLOCK_RECORD
  5
66
330
1
100
AcDbSymbolTableRecord
100
AcDbBlockTableRecord
  2
*D4
 70
    0
280
    1
281
    0
  0
BLOCK_RECORD
  5
69
330
1
100
AcDbSymbolTableRecord
100
AcDbBlockTableRecord
  2
*D7
 70
    0
280
    1
281
    0
  0
ENDTAB
  0
ENDSEC
  0
SECTION
  2
BLOCKS
  0
BLOCK
  5
20
330
1F
100
AcDbEntity
  8
0
100
AcDbBlockBegin
  2
*Model_Space
 70
    0
 10
0
 20
0
 30
0
  3
*Model_Space
  1

  0
ENDBLK
  5
21
330
1F
100
AcDbEntity
  8
0
100
AcDbBlockEnd
  0
BLOCK
  5
1C
330
1B
100
AcDbEntity
  8
0
100
AcDbBlockBegin
  2
*Paper_Space
 70
    0
 10
0
 20
0
 30
0
  3
*Paper_Space
  1

  0
ENDBLK
  5
1D
330
1F
100
AcDbEntity
  8
0
100
AcDbBlockEnd
  0
BLOCK
  5
52
330
51
100
AcDbEntity
  8
0
100
AcDbBlockBegin
  2
*D5
 70
    1
 10
0
 20
0
  3
*D5
  1

  0
LINE
  5
6C
100
AcDbEntity
  8
final centre
  6
ByBlock
 62
    0
370
   -2
100
AcDbLine
 10
144.2099999999989
 20
180
 11
176.3900000000011
 21
180
  0
SOLID
  5
6D
100
AcDbEntity
  8
final centre
  6
ByBlock
 62
    0
370
   -2
100
AcDbTrace
 10
156.7099999999989
 20
180
 30
0
 11
150.4599999999989
 21
178.9592883555679
 31
0
 12
150.4599999999989
 22
181.0407116444321
 32
0
 13
150.4599999999989
 23
181.0407116444321
 33
0
  0
SOLID
  5
6E
100
AcDbEntity
  8
final centre
  6
ByBlock
 62
    0
370
   -2
100
AcDbTrace
 10
163.8900000000011
 20
180
 30
0
 11
170.1400000000011
 21
181.0407116444321
 31
0
 12
170.1400000000011
 22
178.9592883555679
 32
0
 13
170.1400000000011
 23
178.9592883555679
 33
0
  0
MTEXT
  5
6F
100
AcDbEntity
  8
final centre
  6
CONTINUOUS
 62
    0
370
   -2
100
AcDbMText
 10
172.2233333333344
 20
184.6875
 30
0
 40
6.25
 41
13.54166666666667
 71
    5
 72
    1
  1
7,18
  7
STANDARD
210
0
220
0
230
1
 50
0
 73
    2
 44
1
  0
ENDBLK
  5
53
330
51
100
AcDbEntity
  8
0
100
AcDbBlockEnd
  0
BLOCK
  5
55
330
54
100
AcDbEntity
  8
0
100
AcDbBlockBegin
  2
*D9
 70
    1
 10
0
 20
0
  3
*D9
  1

  0
LINE
  5
70
100
AcDbEntity
  8
final centre
  6
ByBlock
 62
    0
370
   -2
100
AcDbLine
 10
144.19
 20
20
 11
176.39
 21
20
  0
SOLID
  5
71
100
AcDbEntity
  8
final centre
  6
ByBlock
 62
    0
370
   -2
100
AcDbTrace
 10
156.69
 20
20
 30
0
 11
150.44
 21
18.9592883555679
 31
0
 12
150.44
 22
21.0407116444321
 32
0
 13
150.44
 23
21.0407116444321
 33
0
  0
SOLID
  5
72
100
AcDbEntity
  8
final centre
  6
ByBlock
 62
    0
370
   -2
100
AcDbTrace
 10
163.89
 20
20
 30
0
 11
170.14
 21
21.0407116444321
 31
0
 12
170.14
 22
18.9592883555679
 32
0
 13
170.14
 23
18.9592883555679
 33
0
  0
MTEXT
  5
73
100
AcDbEntity
  8
final centre
  6
CONTINUOUS
 62
    0
370
   -2
100
AcDbMText
 10
170.4872222222222
 20
24.6875
 30
0
 40
6.25
 41
10.06944444444444
 71
    5
 72
    1
  1
7,2
  7
STANDARD
210
0
220
0
230
1
 50
0
 73
    2
 44
1
  0
ENDBLK
  5
56
330
54
100
AcDbEntity
  8
0
100
AcDbBlockEnd
  0
BLOCK
  5
58
330
57
100
AcDbEntity
  8
0
100
AcDbBlockBegin
  2
*D2
 70
    1
 10
0
 20
0
  3
*D2
  1

  0
LINE
  5
74
100
AcDbEntity
  8
0
  6
ByBlock
 62
    0
370
   -2
100
AcDbLine
 10
190
 20
200
 11
190
 21
0
  0
SOLID
  5
75
100
AcDbEntity
  8
0
  6
ByBlock
 62
    0
370
   -2
100
AcDbTrace
 10
190
 20
200
 30
0
 11
191.0407116444321
 21
193.75
 31
0
 12
188.9592883555679
 22
193.75
 32
0
 13
188.9592883555679
 23
193.75
 33
0
  0
SOLID
  5
76
100
AcDbEntity
  8
0
  6
ByBlock
 62
    0
370
   -2
100
AcDbTrace
 10
190
 20
0
 30
0
 11
188.9592883555679
 21
6.25
 31
0
 12
191.0407116444321
 22
6.25
 32
0
 13
191.0407116444321
 23
6.25
 33
0
  0
MTEXT
  5
77
100
AcDbEntity
  8
0
  6
CONTINUOUS
 62
    0
370
   -2
100
AcDbMText
 10
185.3125
 20
100
 30
0
 40
6.25
 41
12.5
 71
    5
 72
    1
  1
200
  7
STANDARD
210
0
220
0
230
1
 50
90
 73
    2
 44
1
  0
LINE
  5
78
100
AcDbEntity
  8
0
  6
ByBlock
 62
    0
370
   -2
100
AcDbLine
 10
181.5625
 20
200
 11
193.125
 21
200
  0
LINE
  5
79
100
AcDbEntity
  8
0
  6
ByBlock
 62
    0
370
   -2
100
AcDbLine
 10
181.5625
 20
0
 11
193.125
 21
0
  0
ENDBLK
  5
59
330
57
100
AcDbEntity
  8
0
100
AcDbBlockEnd
  0
BLOCK
  5
5B
330
5A
100
AcDbEntity
  8
0
100
AcDbBlockBegin
  2
*D3
 70
    1
 10
0
 20
0
  3
*D3
  1

  0
LINE
  5
7A
100
AcDbEntity
  8
0
  6
ByBlock
 62
    0
370
   -2
100
AcDbLine
 10
87.92893218813454
 20
107.0710678118655
 11
102.0710678118655
 21
92.92893218813452
  0
SOLID
  5
7B
100
AcDbEntity
  8
0
  6
ByBlock
 62
    0
370
   -2
100
AcDbTrace
 10
87.92893218813454
 20
107.0710678118655
 30
0
 11
93.0842438315882
 21
103.3875446904873
 31
0
 12
91.61245530951271
 22
101.9157561684118
 32
0
 13
91.61245530951271
 23
101.9157561684118
 33
0
  0
SOLID
  5
7C
100
AcDbEntity
  8
0
  6
ByBlock
 62
    0
370
   -2
100
AcDbTrace
 10
102.0710678118655
 20
92.92893218813452
 30
0
 11
96.91575616841185
 21
96.61245530951271
 31
0
 12
98.38754469048733
 22
98.0842438315882
 32
0
 13
98.38754469048733
 23
98.0842438315882
 33
0
  0
MTEXT
  5
7D
100
AcDbEntity
  8
0
  6
CONTINUOUS
 62
    0
370
   -2
100
AcDbMText
 10
98.31456303681195
 20
103.3145630368119
 30
0
 40
6.25
 41
7.638888888888888
 71
    5
 72
    1
  1
20
  7
STANDARD
210
0
220
0
230
1
 50
314.9999999999999
 73
    2
 44
1
  0
ENDBLK
  5
5C
330
5A
100
AcDbEntity
  8
0
100
AcDbBlockEnd
  0
BLOCK
  5
5E
330
5D
100
AcDbEntity
  8
0
100
AcDbBlockBegin
  2
*D6
 70
    1
 10
0
 20
0
  3
*D6
  1

  0
LINE
  5
7E
100
AcDbEntity
  8
final centre
  6
ByBlock
 62
    0
370
   -2
100
AcDbLine
 10
73.13020248814303
 20
68.03292091059001
 11
88.15979751185695
 21
51.96707908940998
  0
SOLID
  5
7F
100
AcDbEntity
  8
final centre
  6
ByBlock
 62
    0
370
   -2
100
AcDbTrace
 10
73.13020248814303
 20
68.03292091059001
 30
0
 11
78.15996964992101
 21
64.17973741831295
 31
0
 12
76.63997795347503
 22
62.75778518628773
 32
0
 13
76.63997795347503
 23
62.75778518628773
 33
0
  0
SOLID
  5
80
100
AcDbEntity
  8
final centre
  6
ByBlock
 62
    0
370
   -2
100
AcDbTrace
 10
88.15979751185695
 20
51.96707908940998
 30
0
 11
83.13003035007897
 21
55.82026258168704
 31
0
 12
84.65002204652495
 22
57.24221481371226
 32
0
 13
84.65002204652495
 23
57.24221481371226
 33
0
  0
MTEXT
  5
81
100
AcDbEntity
  8
final centre
  6
CONTINUOUS
 62
    0
370
   -2
100
AcDbMText
 10
84.06811970621723
 20
63.20232848516623
 30
0
 40
6.25
 41
7.638888888888888
 71
    5
 72
    1
  1
22
  7
STANDARD
210
0
220
0
230
1
 50
313.0913403957697
 73
    2
 44
1
  0
ENDBLK
  5
5F
330
5D
100
AcDbEntity
  8
0
100
AcDbBlockEnd
  0
BLOCK
  5
61
330
60
100
AcDbEntity
  8
0
100
AcDbBlockBegin
  2
*D1
 70
    1
 10
0
 20
0
  3
*D1
  1

  0
LINE
  5
82
100
AcDbEntity
  8
0
  6
ByBlock
 62
    0
370
   -2
100
AcDbLine
 10
0
 20
210
 11
180
 21
210
  0
SOLID
  5
83
100
AcDbEntity
  8
0
  6
ByBlock
 62
    0
370
   -2
100
AcDbTrace
 10
0
 20
210
 30
0
 11
6.25
 21
211.0407116444321
 31
0
 12
6.25
 22
208.9592883555679
 32
0
 13
6.25
 23
208.9592883555679
 33
0
  0
SOLID
  5
84
100
AcDbEntity
  8
0
  6
ByBlock
 62
    0
370
   -2
100
AcDbTrace
 10
180
 20
210
 30
0
 11
173.75
 21
208.9592883555679
 31
0
 12
173.75
 22
211.0407116444321
 32
0
 13
173.75
 23
211.0407116444321
 33
0
  0
MTEXT
  5
85
100
AcDbEntity
  8
0
  6
CONTINUOUS
 62
    0
370
   -2
100
AcDbMText
 10
90
 20
214.6875
 30
0
 40
6.25
 41
11.11111111111111
 71
    5
 72
    1
  1
180
  7
STANDARD
210
0
220
0
230
1
 50
0
 73
    2
 44
1
  0
LINE
  5
86
100
AcDbEntity
  8
0
  6
ByBlock
 62
    0
370
   -2
100
AcDbLine
 10
9.567553118338697e-17
 20
201.5625
 11
1.913510623667739e-16
 21
213.125
  0
LINE
  5
87
100
AcDbEntity
  8
0
  6
ByBlock
 62
    0
370
   -2
100
AcDbLine
 10
180
 20
201.5625
 11
180
 21
213.125
  0
ENDBLK
  5
62
330
60
100
AcDbEntity
  8
0
100
AcDbBlockEnd
  0
BLOCK
  5
64
330
63
100
AcDbEntity
  8
0
100
AcDbBlockBegin
  2
*D8
 70
    1
 10
0
 20
0
  3
*D8
  1

  0
LINE
  5
88
100
AcDbEntity
  8
final centre
  6
ByBlock
 62
    0
370
   -2
100
AcDbLine
 10
5
 20
20
 11
35
 21
20
  0
SOLID
  5
89
100
AcDbEntity
  8
final centre
  6
ByBlock
 62
    0
370
   -2
100
AcDbTrace
 10
17.5
 20
20
 30
0
 11
11.25
 21
18.9592883555679
 31
0
 12
11.25
 22
21.0407116444321
 32
0
 13
11.25
 23
21.0407116444321
 33
0
  0
SOLID
  5
8A
100
AcDbEntity
  8
final centre
  6
ByBlock
 62
    0
370
   -2
100
AcDbTrace
 10
22.5
 20
20
 30
0
 11
28.75
 21
21.0407116444321
 31
0
 12
28.75
 22
18.9592883555679
 32
0
 13
28.75
 23
18.9592883555679
 33
0
  0
MTEXT
  5
8B
100
AcDbEntity
  8
final centre
  6
CONTINUOUS
 62
    0
370
   -2
100
AcDbMText
 10
20
 20
24.6875
 30
0
 40
6.25
 41
2.777777777778165
 71
    5
 72
    1
  1
5
  7
STANDARD
210
0
220
0
230
1
 50
0
 73
    2
 44
1
  0
ENDBLK
  5
65
330
63
100
AcDbEntity
  8
0
100
AcDbBlockEnd
  0
BLOCK
  5
67
330
66
100
AcDbEntity
  8
0
100
AcDbBlockBegin
  2
*D4
 70
    1
 10
0
 20
0
  3
*D4
  1

  0
LINE
  5
8C
100
AcDbEntity
  8
final centre
  6
ByBlock
 62
    0
370
   -2
100
AcDbLine
 10
5
 20
180
 11
35
 21
180
  0
SOLID
  5
8D
100
AcDbEntity
  8
final centre
  6
ByBlock
 62
    0
370
   -2
100
AcDbTrace
 10
17.5
 20
180
 30
0
 11
11.25
 21
178.9592883555679
 31
0
 12
11.25
 22
181.0407116444321
 32
0
 13
11.25
 23
181.0407116444321
 33
0
  0
SOLID
  5
8E
100
AcDbEntity
  8
final centre
  6
ByBlock
 62
    0
370
   -2
100
AcDbTrace
 10
22.5
 20
180
 30
0
 11
28.75
 21
181.0407116444321
 31
0
 12
28.75
 22
178.9592883555679
 32
0
 13
28.75
 23
178.9592883555679
 33
0
  0
MTEXT
  5
8F
100
AcDbEntity
  8
final centre
  6
CONTINUOUS
 62
    0
370
   -2
100
AcDbMText
 10
20
 20
184.6875
 30
0
 40
6.25
 41
2.777777777778165
 71
    5
 72
    1
  1
5
  7
STANDARD
210
0
220
0
230
1
 50
0
 73
    2
 44
1
  0
ENDBLK
  5
68
330
66
100
AcDbEntity
  8
0
100
AcDbBlockEnd
  0
BLOCK
  5
6A
330
69
100
AcDbEntity
  8
0
100
AcDbBlockBegin
  2
*D7
 70
    1
 10
0
 20
0
  3
*D7
  1

  0
LINE
  5
90
100
AcDbEntity
  8
final centre
  6
ByBlock
 62
    0
370
   -2
100
AcDbLine
 10
53.70377393779093
 20
64.89536204326654
 11
76.58622606220906
 21
86.10463795673343
  0
SOLID
  5
91
100
AcDbEntity
  8
final centre
  6
ByBlock
 62
    0
370
   -2
100
AcDbTrace
 10
62.87142302610017
 20
73.39266809834206
 30
0
 11
58.99505811057119
 21
68.38074473814264
 31
0
 12
57.58013885331991
 22
69.90728540346596
 32
0
 13
57.58013885331991
 23
69.90728540346596
 33
0
  0
SOLID
  5
92
100
AcDbEntity
  8
final centre
  6
ByBlock
 62
    0
370
   -2
100
AcDbTrace
 10
67.41857697389983
 20
77.60733190165791
 30
0
 11
71.29494188942881
 21
82.61925526185733
 31
0
 12
72.70986114668008
 22
81.09271459653401
 32
0
 13
72.70986114668008
 23
81.09271459653401
 33
0
  0
MTEXT
  5
93
100
AcDbEntity
  8
final centre
  6
CONTINUOUS
 62
    0
370
   -2
100
AcDbMText
 10
69.07056866652097
 20
85.52988961661941
 30
0
 40
6.25
 41
10.06944444444483
 71
    5
 72
    1
  1
6,2
  7
STANDARD
210
0
220
0
230
1
 50
42.82680418981766
 73
    2
 44
1
  0
ENDBLK
  5
6B
330
69
100
AcDbEntity
  8
0
100
AcDbBlockEnd
  0
ENDSEC
  0
SECTION
  2
ENTITIES
  0
IMAGE
  5
96
100
AcDbEntity
  8
final centre
  6
ByLayer
 62
  256
370
   -1
100
AcDbRasterImage
 10
0
 20
240
 30
0
 11
1
 21
0
 31
0
 12
6.123233995736766e-17
 22
1
 32
0
 13
120
 23
42
340
94
 70
    1
280
    0
281
   50
282
   50
283
    0
360
95
  0
IMAGE
  5
98
100
AcDbEntity
  8
final centre
  6
ByLayer
 62
  256
370
   -1
100
AcDbRasterImage
 10
0
 20
240
 30
0
 11
1
 21
0
 31
0
 12
6.123233995736766e-17
 22
1
 32
0
 13
120
 23
42
340
94
 70
    1
280
    0
281
   50
282
   50
283
    0
360
97
  0
LWPOLYLINE
  5
99
100
AcDbEntity
  8
construct
  6
ByLayer
 62
  256
370
   -1
100
AcDbPolyline
 90
    4
 70
    1
 43
0
 10
0
 20
0
 10
180
 20
0
 10
180
 20
200
 10
0
 20
200
  0
CIRCLE
  5
9A
100
AcDbEntity
  8
construct
  6
ByLayer
 62
  256
370
   -1
100
AcDbCircle
 10
20
 20
20
 40
2.5
  0
CIRCLE
  5
9B
100
AcDbEntity
  8
construct
  6
ByLayer
 62
  256
370
   -1
100
AcDbCircle
 10
160.29
 20
20
 40
3.6
  0
CIRCLE
  5
9C
100
AcDbEntity
  8
construct
  6
ByLayer
 62
  256
370
   -1
100
AcDbCircle
 10
20
 20
180
 40
2.5
  0
CIRCLE
  5
9D
100
AcDbEntity
  8
construct
  6
ByLayer
 62
  256
370
   -1
100
AcDbCircle
 10
160.29
 20
180
 40
3.6
  0
CIRCLE
  5
9E
100
AcDbEntity
  8
construct
  6
ByLayer
 62
  256
370
   -1
100
AcDbCircle
 10
80.645
 20
60.00000000000001
 40
11
  0
CIRCLE
  5
9F
100
AcDbEntity
  8
construct
  6
ByLayer
 62
  256
370
   -1
100
AcDbCircle
 10
96.145
 20
75.5
 40
3.1
  0
CIRCLE
  5
A0
100
AcDbEntity
  8
construct
  6
ByLayer
 62
  256
370
   -1
100
AcDbCircle
 10
65.145
 20
75.5
 40
3.1
  0
CIRCLE
  5
A1
100
AcDbEntity
  8
construct
  6
ByLayer
 62
  256
370
   -1
100
AcDbCircle
 10
65.145
 20
44.5
 40
3.1
  0
CIRCLE
  5
A2
100
AcDbEntity
  8
construct
  6
ByLayer
 62
  256
370
   -1
100
AcDbCircle
 10
95
 20
100
 40
10
  0
LINE
  5
A3
100
AcDbEntity
  8
finaldotted
  6
ByLayer
 62
  256
370
   -1
100
AcDbLine
 10
16
 20
20
 11
24
 21
20
  0
LINE
  5
A4
100
AcDbEntity
  8
finaldotted
  6
ByLayer
 62
  256
370
   -1
100
AcDbLine
 10
20
 20
16
 11
20
 21
24
  0
LINE
  5
A5
100
AcDbEntity
  8
finaldotted
  6
ByLayer
 62
  256
370
   -1
100
AcDbLine
 10
20
 20
175
 11
20
 21
185
  0
LINE
  5
A6
100
AcDbEntity
  8
finaldotted
  6
ByLayer
 62
  256
370
   -1
100
AcDbLine
 10
15
 20
180
 11
24
 21
180
  0
LINE
  5
A7
100
AcDbEntity
  8
finaldotted
  6
ByLayer
 62
  256
370
   -1
100
AcDbLine
 10
155.5
 20
20
 11
165.5
 21
20
  0
LINE
  5
A8
100
AcDbEntity
  8
finaldotted
  6
ByLayer
 62
  256
370
   -1
100
AcDbLine
 10
160.29
 20
15.21000000000004
 11
160.29
 21
25.21000000000004
  0
LINE
  5
A9
100
AcDbEntity
  8
finaldotted
  6
ByLayer
 62
  256
370
   -1
100
AcDbLine
 10
155.51
 20
180
 11
165.51
 21
180
  0
LINE
  5
AA
100
AcDbEntity
  8
finaldotted
  6
ByLayer
 62
  256
370
   -1
100
AcDbLine
 10
160.3
 20
175.21
 11
160.3
 21
185.21
  0
LINE
  5
AB
100
AcDbEntity
  8
finaldotted
  6
ByLayer
 62
  256
370
   -1
100
AcDbLine
 10
110
 20
100
 11
80
 21
100
  0
LINE
  5
AC
100
AcDbEntity
  8
finaldotted
  6
ByLayer
 62
  256
370
   -1
100
AcDbLine
 10
95
 20
115
 11
95
 21
87
  0
LINE
  5
AD
100
AcDbEntity
  8
finaldotted
  6
ByLayer
 62
  256
370
   -1
100
AcDbLine
 10
70.1455
 20
44.5
 11
60.14549999999999
 21
44.5
  0
LINE
  5
AE
100
AcDbEntity
  8
finaldotted
  6
ByLayer
 62
  256
370
   -1
100
AcDbLine
 10
65.145
 20
49.5005
 11
65.145
 21
39.5005
  0
LINE
  5
AF
100
AcDbEntity
  8
finaldotted
  6
ByLayer
 62
  256
370
   -1
100
AcDbLine
 10
60.1225
 20
75.50000000000159
 11
70.1225
 21
75.49999999999841
  0
LINE
  5
B0
100
AcDbEntity
  8
finaldotted
  6
ByLayer
 62
  256
370
   -1
100
AcDbLine
 10
65.145
 20
70.499
 11
65.145
 21
80.499
  0
CIRCLE
  5
B1
100
AcDbEntity
  8
construct
  6
ByLayer
 62
  256
370
   -1
100
AcDbCircle
 10
96.145
 20
44.5
 40
3.1
  0
LINE
  5
B2
100
AcDbEntity
  8
finaldotted
  6
ByLayer
 62
  256
370
   -1
100
AcDbLine
 10
101.1455
 20
44.5
 11
91.1455
 21
44.5
  0
LINE
  5
B3
100
AcDbEntity
  8
finaldotted
  6
ByLayer
 62
  256
370
   -1
100
AcDbLine
 10
96.145
 20
39.4995
 11
96.145
 21
49.4995
  0
LINE
  5
B4
100
AcDbEntity
  8
finaldotted
  6
ByLayer
 62
  256
370
   -1
100
AcDbLine
 10
96.145
 20
80.5005
 11
96.145
 21
70.5005
  0
LINE
  5
B5
100
AcDbEntity
  8
finaldotted
  6
ByLayer
 62
  256
370
   -1
100
AcDbLine
 10
101.1455
 20
75.49999999992895
 11
91.1455
 21
75.50000000007105
  0
LINE
  5
B6
100
AcDbEntity
  8
finaldotted
  6
ByLayer
 62
  256
370
   -1
100
AcDbLine
 10
96.17750000000002
 20
59.99999999999969
 11
66.17750000000002
 21
60.00000000000029
  0
LINE
  5
B7
100
AcDbEntity
  8
finaldotted
  6
ByLayer
 62
  256
370
   -1
100
AcDbLine
 10
80.645
 20
75.00300000000001
 11
80.645
 21
45.003
  0
CIRCLE
  5
B8
100
AcDbEntity
  8
0
  6
ByLayer
 62
  256
370
   -1
100
AcDbCircle
 10
20
 20
180
 40
2.500000000002046
  0
CIRCLE
  5
B9
100
AcDbEntity
  8
0
  6
ByLayer
 62
  256
370
   -1
100
AcDbCircle
 10
160.3
 20
180
 40
3.590000000001083
  0
CIRCLE
  5
BA
100
AcDbEntity
  8
0
  6
ByLayer
 62
  256
370
   -1
100
AcDbCircle
 10
160.29
 20
20
 40
3.599999999999824
  0
CIRCLE
  5
BB
100
AcDbEntity
  8
0
  6
ByLayer
 62
  256
370
   -1
100
AcDbCircle
 10
20
 20
20
 40
2.500000000000025
  0
CIRCLE
  5
BC
100
AcDbEntity
  8
0
  6
ByLayer
 62
  256
370
   -1
100
AcDbCircle
 10
80.645
 20
60
 40
11.00000000000027
  0
CIRCLE
  5
BD
100
AcDbEntity
  8
0
  6
ByLayer
 62
  256
370
   -1
100
AcDbCircle
 10
96.145
 20
75.50000000000001
 40
3.100000000000236
  0
CIRCLE
  5
BE
100
AcDbEntity
  8
0
  6
ByLayer
 62
  256
370
   -1
100
AcDbCircle
 10
65.145
 20
75.49999999999999
 40
3.099999999998829
  0
CIRCLE
  5
BF
100
AcDbEntity
  8
0
  6
CONTINUOUS
 62
  256
370
   -1
100
AcDbCircle
 10
65.145
 20
44.5
 40
3.099999999999838
  0
CIRCLE
  5
C0
100
AcDbEntity
  8
0
  6
CONTINUOUS
 62
  256
370
   -1
100
AcDbCircle
 10
96.145
 20
44.5
 40
3.099999999999383
  0
CIRCLE
  5
C1
100
AcDbEntity
  8
0
  6
CONTINUOUS
 62
  256
370
   -1
100
AcDbCircle
 10
95
 20
100
 40
10
  0
LWPOLYLINE
  5
C2
100
AcDbEntity
  8
0
  6
CONTINUOUS
 62
  256
370
   -1
100
AcDbPolyline
 90
    4
 70
    1
 43
0
 10
0
 20
0
 10
180
 20
0
 10
180
 20
200
 10
0
 20
200
  0
LWPOLYLINE
  5
C3
100
AcDbEntity
  8
contsruct2
  6
ByLayer
 62
  256
370
   -1
100
AcDbPolyline
 90
    4
 70
    1
 43
0
 10
220
 20
200
 10
226
 20
200
 10
226
 20
0
 10
220
 20
0
  0
LINE
  5
C4
100
AcDbEntity
  8
contsruct2
  6
ByLayer
 62
  256
370
   -1
100
AcDbLine
 10
156.6899999999997
 20
23.60000000000028
 11
160.29
 21
23.60000000000031
  0
LINE
  5
C5
100
AcDbEntity
  8
contsruct2
  6
ByLayer
 62
  256
370
   -1
100
AcDbLine
 10
163.8900000000003
 20
16.39999999999969
 11
160.29
 21
16.39999999999969
  0
LINE
  5
C6
100
AcDbEntity
  8
contsruct2
  6
ByLayer
 62
  256
370
   -1
100
AcDbLine
 10
22.50000000000002
 20
17.49999999999998
 11
20
 21
17.49999999999998
  0
LINE
  5
C7
100
AcDbEntity
  8
contsruct2
  6
ByLayer
 62
  256
370
   -1
100
AcDbLine
 10
17.49999999999998
 20
22.50000000000002
 11
20
 21
22.50000000000002
  0
LINE
  5
C8
100
AcDbEntity
  8
contsruct2
  6
ByLayer
 62
  256
370
   -1
100
AcDbLine
 10
99.24499999999998
 20
41.40000000000002
 11
96.145
 21
41.40000000000002
  0
LINE
  5
C9
100
AcDbEntity
  8
contsruct2
  6
ByLayer
 62
  256
370
   -1
100
AcDbLine
 10
93.04500000000004
 20
47.59999999999998
 11
96.14500000000001
 21
47.59999999999997
  0
LINE
  5
CA
100
AcDbEntity
  8
contsruct2
  6
ByLayer
 62
  256
370
   -1
100
AcDbLine
 10
68.24499999999935
 20
72.4000000000006
 11
65.14499999999998
 21
72.40000000000062
  0
LINE
  5
CB
100
AcDbEntity
  8
contsruct2
  6
ByLayer
 62
  256
370
   -1
100
AcDbLine
 10
62.04500000000058
 20
78.59999999999937
 11
65.14499999999998
 21
78.59999999999938
  0
LINE
  5
CC
100
AcDbEntity
  8
contsruct2
  6
ByLayer
 62
  256
370
   -1
100
AcDbLine
 10
104.9999999999994
 20
90.00000000000061
 11
95
 21
90.00000000000061
  0
LINE
  5
CD
100
AcDbEntity
  8
contsruct2
  6
ByLayer
 62
  256
370
   -1
100
AcDbLine
 10
85.0000000000007
 20
109.9999999999993
 11
95.00000000000001
 21
109.9999999999993
  0
LINE
  5
CE
100
AcDbEntity
  8
contsruct2
  6
ByLayer
 62
  256
370
   -1
100
AcDbLine
 10
22.50000000000205
 20
177.499999999998
 11
20
 21
177.499999999998
  0
LINE
  5
CF
100
AcDbEntity
  8
contsruct2
  6
ByLayer
 62
  256
370
   -1
100
AcDbLine
 10
156.7099999999993
 20
183.5900000000006
 11
160.3
 21
183.5900000000007
  0
LINE
  5
D0
100
AcDbEntity
  8
contsruct2
  6
ByLayer
 62
  256
370
   -1
100
AcDbLine
 10
163.8900000000006
 20
176.4099999999993
 11
160.3
 21
176.4099999999993
  0
LINE
  5
D1
100
AcDbEntity
  8
contsruct2
  6
ByLayer
 62
  256
370
   -1
100
AcDbLine
 10
17.49999999999798
 20
182.500000000002
 11
20
 21
182.500000000002
  0
LINE
  5
D2
100
AcDbEntity
  8
contsruct2
  6
ByLayer
 62
  256
370
   -1
100
AcDbLine
 10
91.64500000000044
 20
48.99999999999954
 11
80.64499999999998
 21
48.99999999999955
  0
LINE
  5
D3
100
AcDbEntity
  8
contsruct2
  6
ByLayer
 62
  256
370
   -1
100
AcDbLine
 10
69.64499999999956
 20
71.00000000000044
 11
80.645
 21
71.00000000000044
  0
DIMENSION
  5
D4
100
AcDbEntity
  8
0
  6
ByLayer
 62
  256
370
   -1
100
AcDbDimension
  2
*D1
 10
180
 20
210
 30
0
 11
90
 21
214.6875
 31
0
 70
   32
 71
    5
 72
    0
  3
Standard
 53
0
210
0
220
0
230
1
100
AcDbAlignedDimension
 13
0
 23
200
 33
0
 14
180
 24
200
 34
0
100
AcDbRotatedDimension
  0
DIMENSION
  5
D5
100
AcDbEntity
  8
0
  6
ByLayer
 62
  256
370
   -1
100
AcDbDimension
  2
*D2
 10
190
 20
-1.224646799147353e-15
 30
0
 11
185.3125
 21
100
 31
0
 70
   32
 71
    5
 72
    0
  3
Standard
 53
0
210
0
220
0
230
1
100
AcDbAlignedDimension
 13
180
 23
200
 33
0
 14
180
 24
0
 34
0
 50
90
100
AcDbRotatedDimension
  0
DIMENSION
  5
D6
100
AcDbEntity
  8
0
  6
ByLayer
 62
  256
370
   -1
100
AcDbDimension
  2
*D3
 10
87.92893218813454
 20
107.0710678118655
 30
0
 11
98.31456303681195
 21
103.3145630368119
 31
0
 70
   35
 71
    5
 72
    0
  3
Standard
 53
0
210
0
220
0
230
1
100
AcDbDiametricDimension
 15
102.0710678118655
 25
92.92893218813452
 35
0
 40
0
  0
DIMENSION
  5
D7
100
AcDbEntity
  8
final centre
  6
ByLayer
 62
  256
370
   -1
100
AcDbDimension
  2
*D4
 10
17.5
 20
180
 30
0
 11
20
 21
184.6875
 31
0
 70
   35
 71
    5
 72
    0
  3
Standard
 53
0
210
0
220
0
230
1
100
AcDbDiametricDimension
 15
22.5
 25
180
 35
0
 40
0
  0
DIMENSION
  5
D8
100
AcDbEntity
  8
final centre
  6
ByLayer
 62
  256
370
   -1
100
AcDbDimension
  2
*D5
 10
156.7099999999989
 20
180
 30
0
 11
160.3
 21
184.6875
 31
0
 70
   35
 71
    5
 72
    0
  3
Standard
 53
0
210
0
220
0
230
1
100
AcDbDiametricDimension
 15
163.8900000000011
 25
180
 35
0
 40
0
  0
DIMENSION
  5
D9
100
AcDbEntity
  8
final centre
  6
ByLayer
 62
  256
370
   -1
100
AcDbDimension
  2
*D6
 10
73.13020248814303
 20
68.03292091059001
 30
0
 11
84.06811970621723
 21
63.20232848516623
 31
0
 70
   35
 71
    5
 72
    0
  3
Standard
 53
0
210
0
220
0
230
1
100
AcDbDiametricDimension
 15
88.15979751185695
 25
51.96707908940998
 35
0
 40
0
  0
DIMENSION
  5
DA
100
AcDbEntity
  8
final centre
  6
ByLayer
 62
  256
370
   -1
100
AcDbDimension
  2
*D7
 10
62.87142302610017
 20
73.39266809834206
 30
0
 11
61.95851022934668
 21
78.93786840811595
 31
0
 70
   35
 71
    5
 72
    0
  3
Standard
 53
0
210
0
220
0
230
1
100
AcDbDiametricDimension
 15
67.41857697389983
 25
77.60733190165791
 35
0
 40
0
  0
DIMENSION
  5
DB
100
AcDbEntity
  8
final centre
  6
ByLayer
 62
  256
370
   -1
100
AcDbDimension
  2
*D8
 10
17.5
 20
20
 30
0
 11
20
 21
24.6875
 31
0
 70
   35
 71
    5
 72
    0
  3
Standard
 53
0
210
0
220
0
230
1
100
AcDbDiametricDimension
 15
22.5
 25
20
 35
0
 40
0
  0
DIMENSION
  5
DC
100
AcDbEntity
  8
final centre
  6
ByLayer
 62
  256
370
   -1
100
AcDbDimension
  2
*D9
 10
156.69
 20
20
 30
0
 11
160.29
 21
24.6875
 31
0
 70
   35
 71
    5
 72
    0
  3
Standard
 53
0
210
0
220
0
230
1
100
AcDbDiametricDimension
 15
163.89
 25
20
 35
0
 40
0
  0
MTEXT
  5
DD
100
AcDbEntity
  8
final centre
  6
ByLayer
 62
  256
370
   -1
100
AcDbMText
 10
0
 20
236
 30
0
 40
1
 41
188.9722289982406
 71
    1
 72
    1
  3
This work is licensed under the Creative Commons Attribution-ShareAlike 4.0 International License. To view a copy of this license, visit http://creativecommons.org/licenses/by-sa/4.0/ or send a letter to Creative Commons, PO Box 1866, Mountain View, 
  1
CA 94042, USA.
  7
standard
210
0
220
0
230
1
 50
0
 73
    2
 44
1
  0
ENDSEC
  0
SECTION
  2
OBJECTS
  0
DICTIONARY
  5
C
330
0
100
AcDbDictionary
281
    1
  3
ACAD_GROUP
350
D
  3
ACAD_IMAGE_DICT
350
DE
  0
DICTIONARY
  5
D
330
C
100
AcDbDictionary
281
    1
  0
IMAGEDEF_REACTOR
  5
95
330
96
100
AcDbRasterImageDefReactor
 90
    2
330
96
  0
IMAGEDEF_REACTOR
  5
97
330
98
100
AcDbRasterImageDefReactor
 90
    2
330
98
  0
DICTIONARY
  5
DE
330
C
100
AcDbDictionary
281
    1
  3
by-sa
350
94
  0
IMAGEDEF
  5
94
102
{ACAD_REACTORS
330
95
330
97
102
}
100
AcDbRasterImageDef
 90
    0
  1
/home/louis/robotics/src/images/by-sa.svg
 10
120
 20
42
 11
1
 21
1
280
    1
281
    0
  0
ENDSEC
  0
EOF
